<svg width="31" height="30" viewBox="0 0 31 30" fill="none" xmlns="http://www.w3.org/2000/svg">
<rect x="0.5" width="30" height="30" rx="6.25" fill="white"/>
<path d="M15.9547 6.72525C15.8293 6.61375 15.6673 6.55216 15.4994 6.55216C15.3316 6.55216 15.1696 6.61375 15.0442 6.72525C14.3914 7.30369 13.8708 8.01585 13.5177 8.81335C13.1646 9.61086 12.9873 10.475 12.9978 11.3471C12.9988 11.4385 13.0234 11.5281 13.0692 11.6072C13.115 11.6863 13.1804 11.7523 13.2592 11.7987C13.9477 12.2059 14.57 12.7157 15.1047 13.3106C15.1545 13.3659 15.2154 13.4101 15.2834 13.4404C15.3514 13.4707 15.425 13.4863 15.4994 13.4863C15.5739 13.4863 15.6475 13.4707 15.7155 13.4404C15.7835 13.4101 15.8443 13.3659 15.8942 13.3106C16.429 12.7165 17.0514 12.2073 17.7397 11.8008C17.8183 11.7543 17.8835 11.6882 17.9291 11.6092C17.9747 11.5301 17.9991 11.4405 18 11.3493C18.0108 10.477 17.8338 9.61273 17.4808 8.81504C17.1279 8.01734 16.6074 7.30497 15.9547 6.72631M8.07948 17.3471C8.07117 17.2545 8.08127 17.1612 8.10919 17.0725C8.13711 16.9839 8.1823 16.9016 8.24215 16.8305C8.302 16.7594 8.37533 16.7008 8.45792 16.6582C8.54051 16.6156 8.63072 16.5897 8.72335 16.5821C10.138 16.4637 11.5539 16.7938 12.7703 17.5256C13.9867 18.2574 14.9418 19.3537 15.5 20.6589C16.0579 19.3537 17.0128 18.2573 18.229 17.5253C19.4452 16.7933 20.861 16.4629 22.2755 16.581C22.6644 16.6129 22.9555 16.955 22.9194 17.346C22.7662 19.0276 21.9899 20.5912 20.743 21.7298C19.4961 22.8684 17.8685 23.4998 16.18 23.5H15.6859C15.6228 23.4995 15.5599 23.4909 15.4989 23.4745C15.4376 23.491 15.3744 23.4996 15.3109 23.5H14.8168C13.1284 23.4995 11.5012 22.868 10.2544 21.7295C9.00774 20.5909 8.23162 19.0274 8.07841 17.346M15.5 15.8776C14.942 14.5722 13.987 13.4757 12.7706 12.7437C11.5541 12.0118 10.1381 11.6815 8.72335 11.7998C8.63072 11.8074 8.54051 11.8332 8.45792 11.8759C8.37533 11.9185 8.302 11.9771 8.24215 12.0482C8.1823 12.1193 8.13711 12.2016 8.10919 12.2902C8.08127 12.3789 8.07117 12.4722 8.07948 12.5648C8.16324 13.497 8.44004 14.4015 8.89229 15.221C8.93792 15.3035 9.00467 15.3724 9.08571 15.4205C9.16675 15.4687 9.25914 15.4945 9.35341 15.4951C10.4278 15.5045 11.4888 15.7352 12.4701 16.1729C13.4514 16.6105 14.332 17.2457 15.0569 18.0388C15.1125 18.0995 15.1815 18.1465 15.2584 18.176C15.3353 18.2055 15.418 18.2167 15.5 18.2088C15.5818 18.2165 15.6643 18.2052 15.741 18.1757C15.8177 18.1462 15.8865 18.0993 15.942 18.0388C16.6669 17.2457 17.5475 16.6105 18.5288 16.1729C19.5101 15.7352 20.5711 15.5045 21.6455 15.4951C21.7399 15.4944 21.8323 15.4685 21.9134 15.4201C21.9944 15.3717 22.0611 15.3026 22.1066 15.2199C22.5587 14.4008 22.8355 13.4966 22.9194 12.5648C22.9277 12.4722 22.9176 12.3789 22.8897 12.2902C22.8618 12.2016 22.8166 12.1193 22.7567 12.0482C22.6969 11.9771 22.6236 11.9185 22.541 11.8759C22.4584 11.8332 22.3682 11.8074 22.2755 11.7998C20.861 11.6817 19.4452 12.0121 18.229 12.7441C17.0128 13.476 16.0579 14.5724 15.5 15.8776Z" fill="#E32929"/>
</svg>
